<svg xmlns="http://www.w3.org/2000/svg" viewBox="0 0 96 96">
  <rect width="96" height="96" rx="16" ry="16" fill="#12161f"/>
  <g transform="translate(20 12)">
    <path d="M8 8h40v16H32v8H24v-8H8z" fill="#8a97a9"/>
    <rect x="4" y="24" width="48" height="44" rx="8" fill="#5c6877"/>
    <path d="M28 26c-6 0-10 4-10 8 0 4 2 6 6 8 4 2 6 3 6 6 0 2-2 4-4 4-2 0-4-1-6-2l-4 8c3 2 7 4 12 4 8 0 14-6 14-12 0-6-4-10-8-12-3-2-4-3-4-4 0-2 1-3 3-3 2 0 4 1 6 2l4-8c-3-2-7-3-11-3z" fill="#68f2ff"/>
    <rect x="0" y="68" width="56" height="8" rx="4" fill="#4a5563"/>
  </g>
</svg>

