<svg xmlns="http://www.w3.org/2000/svg" viewBox="0 0 96 96">
  <rect width="96" height="96" rx="18" ry="18" fill="#0f1724"/>
  <g fill="none" stroke-linecap="round" stroke-linejoin="round" stroke-width="3">
    <path d="M18 58c6-18 16-28 26-30-4 14-2 26 4 34-10 6-23 7-30-4z" stroke="#9dd8ff" fill="#e7f4ff"/>
    <path d="M78 58c-6-18-16-28-26-30 4 14 2 26-4 34 10 6 23 7 30-4z" stroke="#9dd8ff" fill="#e7f4ff"/>
    <path d="M36 36c-2 4-4 8-4 12m32-12c2 4 4 8 4 12" stroke="#8cc8ff"/>
  </g>
  <circle cx="48" cy="44" r="6" fill="#ffe89c" opacity=".6"/>
</svg>

